<?xml version="1.0" standalone="no"?>
<!DOCTYPE svg PUBLIC "-//W3C//DTD SVG 20010904//EN"
 "http://www.w3.org/TR/2001/REC-SVG-20010904/DTD/svg10.dtd">
<svg version="1.0" xmlns="http://www.w3.org/2000/svg"
 width="1024.000000pt" height="1024.000000pt" viewBox="0 0 1024.000000 1024.000000"
 preserveAspectRatio="xMidYMid meet">

<g transform="translate(0.000000,1024.000000) scale(0.100000,-0.100000)"
fill="#000000" stroke="none">
<path d="M1210 9098 c-33 -17 -51 -35 -67 -68 l-23 -44 0 -1509 0 -1508 -64
-92 c-447 -644 -642 -1366 -551 -2047 38 -291 128 -588 254 -839 l41 -81 0
-828 0 -828 23 -44 c16 -33 34 -51 67 -67 l44 -23 851 0 c467 0 915 5 995 10
395 27 750 99 1555 315 495 132 586 149 785 149 193 0 290 -18 710 -129 887
-237 1233 -308 1630 -335 80 -5 528 -10 995 -10 l851 0 44 23 c33 16 51 34 68
67 l22 44 0 828 0 828 44 88 c124 248 221 573 255 858 81 672 -116 1391 -554
2019 l-65 94 0 1508 0 1509 -22 44 c-17 33 -35 51 -68 68 -43 22 -51 22 -390
22 -339 0 -347 0 -390 -22 -24 -13 -52 -34 -61 -48 -61 -88 -1760 -2722 -1757
-2725 33 -30 261 -165 267 -159 5 5 334 513 732 1128 l724 1120 3 -262 2 -263
-381 -533 c-210 -294 -380 -538 -378 -543 2 -4 57 -47 123 -95 93 -66 124 -84
133 -75 7 7 122 167 257 356 l246 344 0 -330 0 -330 -187 -62 c-486 -159 -944
-381 -1351 -653 -311 -208 -524 -381 -796 -647 -253 -249 -440 -467 -621 -726
-42 -60 -80 -110 -85 -110 -5 0 -43 50 -85 110 -309 441 -738 879 -1186 1212
-476 353 -1006 626 -1581 814 l-188 62 0 330 0 330 246 -344 c135 -189 250
-349 257 -356 9 -9 41 10 137 79 69 49 124 92 124 95 -1 2 -173 245 -383 539
l-381 533 2 263 3 262 724 -1120 c398 -615 727 -1123 732 -1128 6 -7 115 57
262 155 7 5 -1621 2541 -1752 2729 -9 14 -37 35 -61 48 -43 22 -51 22 -390 22
-339 0 -347 0 -390 -22z m550 -1380 l0 -1083 -62 -50 c-34 -27 -106 -92 -160
-144 l-98 -93 0 1226 0 1226 160 0 160 0 0 -1082z m7040 -144 l0 -1226 -100
95 c-55 52 -127 117 -160 143 l-60 49 0 1083 0 1082 160 0 160 0 0 -1226z
m-6614 -1259 c450 -149 892 -365 1279 -625 569 -382 1099 -922 1430 -1457 66
-107 66 -80 -2 -308 -115 -385 -315 -786 -530 -1058 -143 -182 -361 -379 -544
-492 -561 -348 -1347 -395 -1924 -115 -572 278 -953 843 -1077 1595 -8 51 -13
166 -12 315 0 198 3 255 23 363 84 477 277 898 606 1322 103 133 297 340 420
448 107 94 87 93 331 12z m6210 -23 c333 -296 628 -692 805 -1080 102 -225
175 -464 216 -709 22 -134 25 -523 5 -648 -121 -737 -499 -1308 -1053 -1585
-571 -287 -1383 -246 -1937 98 -237 148 -470 370 -643 617 -175 249 -342 606
-442 941 -69 229 -71 198 27 352 506 791 1336 1484 2241 1870 246 105 605 230
661 232 12 0 61 -36 120 -88z m-3231 -2805 c55 -142 190 -410 274 -546 94
-149 219 -315 322 -425 46 -49 75 -86 64 -83 -57 17 -244 61 -349 83 -193 39
-336 50 -479 35 -151 -16 -389 -64 -582 -118 -13 -3 3 19 41 58 241 252 469
618 615 986 24 62 46 113 49 113 3 0 23 -46 45 -103z m-3773 -1288 c232 -179
489 -302 779 -373 364 -88 794 -85 1174 11 55 13 186 45 290 69 105 24 378 94
609 155 533 141 664 169 831 176 204 8 270 -5 1170 -240 346 -90 727 -181 845
-201 229 -40 538 -44 770 -10 457 66 855 262 1175 579 l85 83 0 -504 0 -505
-862 3 c-830 4 -869 5 -1018 26 -317 46 -630 117 -1290 292 -809 215 -855 214
-1805 -39 -412 -109 -732 -184 -945 -221 -317 -55 -286 -53 -1212 -57 l-868
-4 0 504 0 505 91 -90 c50 -49 132 -121 181 -159z"/>
<path d="M1929 6062 c-5 -15 -30 -80 -55 -145 -26 -65 -44 -120 -42 -122 14
-14 272 -115 278 -108 10 10 120 261 120 272 0 9 -18 18 -173 82 l-118 48 -10
-27z"/>
<path d="M2461 5682 l-69 -138 135 -73 c74 -39 136 -71 137 -69 26 34 146 264
143 272 -4 10 -256 146 -271 146 -3 0 -37 -62 -75 -138z"/>
<path d="M3011 5368 c-46 -73 -79 -134 -73 -136 6 -2 63 -39 127 -83 65 -44
121 -77 125 -72 4 4 31 42 60 83 29 41 68 96 86 121 l34 46 -130 87 c-71 47
-133 86 -137 86 -5 0 -46 -60 -92 -132z"/>
<path d="M3578 5063 c-122 -155 -138 -176 -137 -182 0 -3 52 -48 116 -100 96
-78 117 -91 128 -80 7 8 45 52 85 99 41 47 82 94 92 106 18 21 18 21 -89 109
-60 49 -115 95 -125 102 -14 13 -22 7 -70 -54z"/>
<path d="M4008 4586 l-107 -113 108 -107 108 -108 117 108 116 109 -112 112
c-62 62 -115 113 -118 113 -3 -1 -53 -52 -112 -114z"/>
<path d="M4465 4144 c-55 -47 -108 -93 -119 -103 -18 -18 -16 -22 70 -134 49
-64 94 -115 99 -114 19 4 244 172 244 182 1 8 -163 223 -187 247 -4 3 -52 -32
-107 -78z"/>
<path d="M8260 6073 c-188 -78 -250 -106 -250 -114 0 -11 110 -261 120 -272 6
-7 253 86 274 104 7 6 -88 273 -103 290 -3 4 -22 0 -41 -8z"/>
<path d="M7565 5751 c-71 -37 -131 -73 -133 -79 -2 -7 109 -217 144 -270 1 -2
63 29 137 69 l136 71 -70 139 c-38 77 -72 139 -77 139 -4 0 -65 -31 -137 -69z"/>
<path d="M6998 5413 l-126 -85 85 -122 c47 -66 89 -125 93 -129 4 -4 56 25
116 66 60 40 117 78 127 83 17 10 11 23 -65 142 -46 73 -87 132 -93 131 -5 0
-67 -39 -137 -86z"/>
<path d="M6486 5031 c-65 -54 -118 -102 -117 -107 2 -10 192 -234 199 -234 2
0 43 33 90 73 48 39 100 82 115 94 18 14 26 27 21 35 -12 20 -175 228 -183
232 -4 3 -60 -39 -125 -93z"/>
<path d="M6003 4588 l-113 -113 116 -109 116 -108 108 107 108 108 -106 114
c-59 62 -109 113 -112 113 -3 0 -56 -51 -117 -112z"/>
<path d="M5625 4167 c-86 -106 -145 -186 -144 -194 0 -6 168 -134 234 -178 11
-7 19 -4 32 15 10 14 50 65 90 115 40 49 73 93 73 97 0 3 -44 43 -97 89 -54
45 -107 90 -118 100 -20 18 -21 17 -70 -44z"/>
</g>
</svg>
